<?xml version="1.0" standalone="no"?>
<!DOCTYPE svg PUBLIC "-//W3C//DTD SVG 20010904//EN"
 "http://www.w3.org/TR/2001/REC-SVG-20010904/DTD/svg10.dtd">
<svg version="1.0" xmlns="http://www.w3.org/2000/svg"
 width="800.000000pt" height="800.000000pt" viewBox="0 0 800.000000 800.000000"
 preserveAspectRatio="xMidYMid meet">
<metadata>
Created by potrace 1.14, written by Peter Selinger 2001-2017
</metadata>
<g transform="translate(0.000000,800.000000) scale(0.100000,-0.100000)"
fill="#000000" stroke="none">
<path d="M4000 4000 l0 -4000 80 0 80 0 0 4000 0 4000 -80 0 -80 0 0 -4000z"/>
<path d="M229 6456 c-98 -28 -186 -115 -215 -214 -11 -36 -14 -227 -14 -1007
0 -657 4 -973 11 -996 37 -118 107 -190 217 -222 76 -23 700 -24 785 -2 73 19
129 56 171 114 71 98 66 23 63 1119 l-2 987 -28 55 c-33 64 -93 122 -157 153
-44 21 -57 22 -415 24 -279 1 -381 -1 -416 -11z"/>
<path d="M5465 3985 c-214 -51 -385 -227 -424 -435 -10 -56 -8 -190 4 -245 12
-58 84 -191 127 -235 71 -74 107 -100 175 -132 371 -174 790 84 801 493 6 210
-113 406 -307 507 -45 23 -81 40 -81 38 0 -2 -24 2 -52 9 -67 15 -179 16 -243
0z"/>
<path d="M6976 3344 c-67 -21 -120 -59 -160 -113 -70 -95 -67 -38 -64 -1126
l3 -980 28 -55 c33 -63 90 -119 156 -152 45 -22 55 -23 409 -26 315 -3 370 -1
420 13 102 30 180 104 216 206 13 39 15 162 13 1029 l-2 985 -22 45 c-29 61
-98 130 -158 160 l-50 25 -370 2 c-308 2 -378 0 -419 -13z"/>
</g>
</svg>
